<svg id="svg" version="1.1" width="500" height="657" xmlns="http://www.w3.org/2000/svg" xmlns:xlink="http://www.w3.org/1999/xlink" style="display: block;"><g id="svgg"><path id="path0" d="M158.978 308.059 C 159.956 309.078,160.957 309.710,161.203 309.464 C 161.449 309.218,160.649 308.385,159.425 307.612 L 157.200 306.207 158.978 308.059 M256.404 308.005 C 257.203 308.888,258.022 309.445,258.224 309.243 C 258.657 308.810,256.377 306.400,255.533 306.400 C 255.214 306.400,255.606 307.122,256.404 308.005 M143.864 309.867 C 143.684 311.407,143.910 312.533,144.400 312.533 C 144.890 312.533,145.116 311.407,144.936 309.867 C 144.765 308.400,144.524 307.200,144.400 307.200 C 144.276 307.200,144.035 308.400,143.864 309.867 " stroke="none" fill="#000000" fill-rule="evenodd"></path><path id="path1" d="M256.000 140.624 C 242.343 141.719,237.763 158.659,249.003 166.509 C 250.431 167.507,251.780 168.520,252.000 168.761 C 252.707 169.536,257.154 172.084,258.600 172.543 C 259.370 172.787,260.000 173.305,260.000 173.693 C 260.000 174.082,260.470 174.400,261.044 174.400 C 265.847 174.400,270.635 184.221,268.280 189.244 C 265.260 195.685,249.987 197.301,243.446 191.872 C 242.614 191.182,242.400 191.669,242.400 194.255 C 242.400 198.177,242.122 197.989,249.819 199.277 C 266.672 202.098,278.162 193.774,275.679 180.541 C 275.093 177.414,269.996 171.199,266.635 169.512 C 254.894 163.618,249.622 159.107,249.078 154.489 C 248.129 146.439,257.246 142.469,267.811 146.331 L 272.000 147.862 272.000 145.266 C 272.000 141.384,266.485 139.784,256.000 140.624 M146.845 143.378 C 146.160 144.356,145.600 145.548,145.600 146.028 C 145.600 146.507,144.880 148.390,144.000 150.211 C 143.120 152.032,142.400 153.905,142.400 154.372 C 142.400 154.839,142.082 155.847,141.693 156.611 C 141.305 157.375,140.633 158.900,140.200 160.000 C 138.754 163.678,137.822 165.981,136.800 168.400 C 136.242 169.720,135.426 171.700,134.986 172.800 C 134.546 173.900,133.826 175.700,133.386 176.800 C 132.946 177.900,132.274 179.610,131.893 180.600 C 131.512 181.590,130.876 183.210,130.481 184.200 C 130.086 185.190,128.670 188.790,127.336 192.200 L 124.910 198.400 128.001 198.400 C 130.524 198.400,131.185 198.069,131.596 196.600 C 131.874 195.610,132.486 193.900,132.957 192.800 C 133.429 191.700,134.168 189.900,134.601 188.800 C 137.107 182.429,136.120 182.824,150.156 182.581 L 162.816 182.362 164.130 184.981 C 164.853 186.421,166.339 189.940,167.433 192.800 C 169.400 197.943,169.458 198.003,172.711 198.246 C 176.023 198.494,177.198 196.950,175.363 194.760 C 175.013 194.342,174.269 192.560,173.710 190.800 C 173.152 189.040,172.310 186.700,171.840 185.600 C 171.370 184.500,170.674 182.790,170.293 181.800 C 169.912 180.810,169.288 179.190,168.907 178.200 C 168.526 177.210,167.830 175.500,167.361 174.400 C 166.891 173.300,164.128 166.280,161.219 158.800 C 154.161 140.650,154.719 141.600,151.110 141.600 C 148.897 141.600,147.758 142.075,146.845 143.378 M204.216 142.600 C 203.787 143.150,199.551 153.500,194.804 165.600 C 190.056 177.700,185.554 189.040,184.799 190.800 C 181.253 199.069,181.256 198.400,184.763 198.400 C 187.325 198.400,187.984 198.074,188.396 196.600 C 188.674 195.610,189.226 194.080,189.623 193.200 C 190.021 192.320,191.238 189.530,192.329 187.000 L 194.312 182.400 207.118 182.400 L 219.925 182.400 221.069 185.000 C 221.698 186.430,222.657 188.860,223.200 190.400 C 225.898 198.050,226.197 198.400,230.026 198.400 L 233.577 198.400 232.072 194.600 C 231.244 192.510,229.597 188.280,228.410 185.200 C 224.721 175.624,224.144 174.157,222.583 170.400 C 222.126 169.300,220.604 165.340,219.200 161.600 C 211.661 141.516,211.708 141.600,208.060 141.600 C 206.375 141.600,204.645 142.050,204.216 142.600 M156.151 164.237 C 162.132 179.040,162.367 178.531,149.691 178.224 C 139.482 177.977,138.667 177.487,140.828 172.895 C 141.370 171.743,142.126 169.990,142.507 169.000 C 142.888 168.010,143.531 166.390,143.935 165.400 C 144.339 164.410,145.661 160.976,146.874 157.768 C 149.873 149.832,150.509 150.276,156.151 164.237 M209.822 156.400 C 210.670 158.600,211.687 161.210,212.082 162.200 C 212.477 163.190,213.112 164.810,213.493 165.800 C 214.943 169.566,215.820 171.671,216.814 173.773 C 218.632 177.617,217.066 178.400,207.567 178.400 C 194.762 178.400,195.226 179.495,201.375 163.786 C 206.514 150.660,207.334 149.943,209.822 156.400 M276.248 303.600 C 276.252 306.240,276.402 307.224,276.580 305.786 C 276.758 304.348,276.754 302.188,276.572 300.986 C 276.389 299.784,276.243 300.960,276.248 303.600 " stroke="none" fill="#ffffff" fill-rule="evenodd"></path><path id="path2" d="M116.865 76.116 C 113.165 78.284,107.200 84.709,107.200 86.527 C 107.200 87.337,106.840 88.000,106.400 88.000 C 105.872 88.000,105.600 115.451,105.600 168.753 C 105.600 221.725,105.875 249.676,106.400 250.000 C 106.840 250.272,107.200 251.037,107.200 251.699 C 107.200 253.078,115.443 261.600,116.776 261.600 C 117.260 261.600,118.488 262.145,119.505 262.811 C 122.024 264.462,280.849 264.255,281.400 262.600 C 281.583 262.050,282.267 261.600,282.919 261.600 C 284.473 261.600,292.800 253.257,292.800 251.699 C 292.800 251.037,293.160 250.272,293.600 250.000 C 294.125 249.676,294.400 221.725,294.400 168.753 C 294.400 115.451,294.128 88.000,293.600 88.000 C 293.160 88.000,292.800 87.337,292.800 86.527 C 292.800 84.627,286.742 78.214,282.917 76.066 C 278.342 73.496,121.255 73.544,116.865 76.116 M269.600 139.617 C 273.636 140.459,274.400 141.366,274.400 145.323 C 274.400 149.578,273.498 150.082,268.731 148.492 C 261.705 146.149,255.350 146.469,252.509 149.309 C 248.370 153.448,251.165 159.109,259.421 163.307 C 272.432 169.923,277.600 175.828,277.600 184.078 C 277.600 197.531,263.904 204.658,246.097 200.469 C 240.831 199.230,240.025 198.424,240.025 194.400 C 240.025 189.425,240.647 189.188,247.588 191.520 C 265.146 197.417,274.878 187.147,261.727 176.600 C 260.767 175.830,259.825 175.200,259.634 175.200 C 258.188 175.200,248.486 168.579,245.461 165.528 C 239.021 159.033,239.436 147.516,246.281 142.800 C 252.676 138.393,259.355 137.482,269.600 139.617 M159.088 148.215 C 160.910 152.733,162.400 156.697,162.400 157.024 C 162.400 157.350,163.079 159.144,163.910 161.009 C 164.740 162.874,166.574 167.460,167.986 171.200 C 169.398 174.940,170.926 178.900,171.383 180.000 C 171.840 181.100,172.478 182.720,172.800 183.600 C 173.122 184.480,173.794 186.190,174.293 187.400 C 174.792 188.610,175.602 190.590,176.093 191.800 C 176.585 193.010,177.305 194.625,177.693 195.389 C 179.579 199.096,178.717 200.000,173.297 200.000 C 168.277 200.000,168.178 199.958,167.202 197.400 C 166.657 195.970,165.533 193.274,164.705 191.409 C 163.877 189.544,163.200 187.546,163.200 186.969 C 163.200 184.460,161.266 184.000,150.705 184.000 C 139.481 184.000,137.600 184.301,137.600 186.096 C 137.600 186.715,137.270 187.847,136.867 188.611 C 135.967 190.317,133.990 194.871,132.871 197.812 C 132.104 199.832,131.699 200.000,127.620 200.000 C 122.696 200.000,122.324 199.428,124.312 194.921 C 124.924 193.534,126.034 190.780,126.778 188.800 C 127.522 186.820,128.679 183.940,129.347 182.400 C 130.926 178.764,131.566 177.166,133.191 172.800 C 133.928 170.820,135.000 168.120,135.572 166.800 C 136.144 165.480,137.057 163.140,137.601 161.600 C 138.145 160.060,139.267 157.274,140.095 155.409 C 140.923 153.544,141.600 151.649,141.600 151.198 C 141.600 150.747,141.931 149.753,142.335 148.989 C 142.739 148.225,143.821 145.890,144.739 143.800 L 146.408 140.000 151.092 140.000 L 155.776 140.000 159.088 148.215 M213.584 142.600 C 215.207 146.917,215.745 148.300,216.693 150.600 C 217.192 151.810,217.912 153.610,218.293 154.600 C 219.216 156.997,220.400 159.954,221.418 162.400 C 221.875 163.500,223.763 168.360,225.613 173.200 C 227.463 178.040,229.456 183.090,230.041 184.421 C 231.792 188.404,235.200 198.124,235.200 199.135 C 235.200 199.780,233.670 200.001,230.346 199.838 C 224.791 199.566,224.860 199.645,220.600 188.800 C 218.786 184.182,219.471 184.400,206.791 184.400 L 194.957 184.400 192.321 191.518 C 189.105 200.200,189.148 200.155,184.312 199.848 C 180.041 199.577,179.544 198.384,181.709 193.600 C 182.207 192.500,182.878 190.880,183.200 190.000 C 183.522 189.120,184.160 187.500,184.616 186.400 C 185.073 185.300,189.302 174.680,194.015 162.800 C 198.727 150.920,202.743 140.930,202.938 140.600 C 204.203 138.469,212.625 140.051,213.584 142.600 M149.097 156.600 C 148.262 159.178,146.281 164.373,145.053 167.200 C 140.886 176.796,140.431 176.000,150.079 176.000 C 159.877 176.000,159.404 177.244,154.300 164.907 C 152.595 160.786,151.200 156.916,151.200 156.307 C 151.200 154.721,149.634 154.939,149.097 156.600 M205.903 157.400 C 205.415 158.610,203.567 163.200,201.796 167.600 L 198.576 175.600 206.592 175.829 C 216.741 176.119,216.322 177.156,211.202 164.400 C 207.452 155.060,207.058 154.538,205.903 157.400 M95.930 299.704 C 94.568 302.727,93.049 306.100,92.553 307.200 C 92.058 308.300,91.568 309.333,91.465 309.495 C 91.053 310.141,88.800 307.234,88.800 306.057 C 88.800 305.366,88.440 304.800,88.000 304.800 C 87.560 304.800,87.200 304.080,87.200 303.200 C 87.200 302.320,86.840 301.600,86.400 301.600 C 85.960 301.600,85.600 300.880,85.600 300.000 C 85.600 299.120,85.240 298.400,84.800 298.400 C 84.360 298.400,84.000 297.656,84.000 296.747 C 84.000 293.966,79.675 294.944,79.347 297.800 C 79.208 299.010,78.758 300.000,78.347 300.000 C 77.936 300.000,77.600 300.720,77.600 301.600 C 77.600 302.480,77.240 303.200,76.800 303.200 C 76.360 303.200,76.000 304.032,76.000 305.049 C 76.000 306.066,75.280 307.671,74.400 308.616 C 71.241 312.007,74.402 314.284,79.535 312.314 C 80.917 311.784,81.291 309.600,80.000 309.600 C 79.560 309.600,79.200 308.856,79.200 307.947 C 79.200 304.747,83.519 306.234,84.000 309.600 L 84.400 312.400 90.476 312.631 C 96.570 312.864,100.741 311.248,97.379 309.958 C 95.669 309.302,96.625 306.400,98.550 306.400 C 101.043 306.400,102.793 308.563,101.531 310.083 C 100.021 311.903,101.857 312.773,107.240 312.788 C 109.682 312.794,112.080 313.200,112.569 313.689 C 113.221 314.341,114.330 314.194,116.729 313.135 C 121.501 311.030,121.554 306.275,116.850 302.440 C 114.915 300.863,113.870 299.428,114.141 298.720 C 114.498 297.792,114.857 297.882,115.986 299.184 C 118.105 301.627,120.000 301.270,120.000 298.428 C 120.000 294.230,114.460 292.938,110.841 296.292 C 107.947 298.974,108.259 301.319,112.000 304.986 C 113.760 306.712,115.200 308.455,115.200 308.862 C 115.200 310.168,113.644 309.649,112.614 308.000 C 112.065 307.120,110.982 306.400,110.208 306.400 C 109.333 306.400,108.800 307.006,108.800 308.000 C 108.800 308.880,108.440 309.600,108.000 309.600 C 107.560 309.600,107.200 308.880,107.200 308.000 C 107.200 307.120,106.840 306.400,106.400 306.400 C 105.960 306.400,105.600 305.710,105.600 304.867 C 105.600 304.023,105.227 303.209,104.771 303.057 C 104.315 302.905,103.452 301.353,102.852 299.609 C 100.706 293.367,98.773 293.393,95.930 299.704 M132.274 295.637 C 124.504 299.042,124.941 312.800,132.819 312.800 C 133.746 312.800,135.225 313.185,136.104 313.656 C 137.147 314.214,138.032 314.241,138.651 313.732 C 139.173 313.304,140.495 312.829,141.589 312.677 C 143.502 312.411,145.393 307.272,144.267 305.400 C 143.536 304.186,136.800 304.727,136.800 306.000 C 136.800 306.660,137.370 307.200,138.067 307.200 C 139.932 307.200,138.966 309.157,136.954 309.453 C 134.659 309.792,131.200 306.260,131.200 303.579 C 131.200 301.264,132.838 299.200,134.676 299.200 C 135.331 299.200,136.003 298.791,136.170 298.291 C 136.595 297.015,139.784 299.089,140.274 300.960 C 141.031 303.855,143.146 301.604,143.189 297.857 C 143.226 294.645,137.292 293.438,132.274 295.637 M145.800 294.930 C 144.613 295.409,144.449 297.600,145.600 297.600 C 146.777 297.600,146.637 309.388,145.456 309.781 C 143.136 310.555,145.623 312.800,148.800 312.800 C 151.977 312.800,154.464 310.555,152.144 309.781 C 150.999 309.400,150.876 307.200,152.000 307.200 C 152.440 307.200,152.800 307.576,152.800 308.036 C 152.800 311.305,161.437 314.578,162.733 311.800 C 163.107 311.000,163.293 311.000,163.667 311.800 C 163.923 312.350,164.931 312.800,165.907 312.800 C 166.882 312.800,168.037 313.157,168.473 313.593 C 170.427 315.547,178.400 310.479,178.400 307.284 C 178.400 306.410,178.777 305.461,179.239 305.176 C 179.780 304.841,179.806 304.328,179.310 303.729 C 178.887 303.218,178.420 301.732,178.271 300.426 C 177.703 295.449,171.219 293.133,165.715 295.942 C 161.190 298.250,160.619 299.303,160.927 304.771 C 161.077 307.429,160.986 309.602,160.724 309.601 C 159.947 309.599,157.600 306.746,157.600 305.804 C 157.600 305.325,157.150 304.768,156.600 304.567 C 155.800 304.273,155.800 303.988,156.600 303.140 C 160.979 298.498,152.649 292.166,145.800 294.930 M180.200 294.930 C 179.013 295.409,178.849 297.600,180.000 297.600 C 180.457 297.600,180.800 300.000,180.800 303.200 C 180.800 306.400,181.143 308.800,181.600 308.800 C 182.040 308.800,182.400 309.451,182.400 310.246 C 182.400 312.598,188.037 314.706,190.916 313.430 C 194.734 311.739,195.200 310.843,195.200 305.200 C 195.200 300.372,196.200 297.600,197.943 297.600 C 198.883 297.600,198.409 309.464,197.456 309.781 C 196.929 309.957,196.741 310.693,197.031 311.448 C 197.600 312.932,203.465 313.367,205.502 312.077 C 206.793 311.260,206.023 309.600,204.353 309.600 C 202.940 309.600,202.811 307.270,204.200 306.842 C 204.750 306.672,206.190 306.317,207.400 306.052 C 208.897 305.723,209.600 305.063,209.600 303.985 C 209.600 303.113,209.960 302.400,210.400 302.400 C 210.840 302.400,211.200 301.500,211.200 300.400 C 211.200 299.300,210.840 298.400,210.400 298.400 C 209.960 298.400,209.600 297.888,209.600 297.262 C 209.600 294.485,191.629 293.150,190.593 295.850 C 190.329 296.540,190.537 297.246,191.056 297.419 C 192.323 297.841,192.309 307.371,191.040 308.640 C 189.759 309.921,188.138 309.852,186.743 308.457 C 185.419 307.133,185.118 297.600,186.400 297.600 C 187.691 297.600,187.317 295.416,185.935 294.886 C 184.471 294.324,181.648 294.346,180.200 294.930 M219.693 295.592 C 215.995 298.392,217.451 303.422,223.046 307.177 C 225.221 308.636,225.294 309.600,223.228 309.600 C 222.364 309.600,221.271 308.880,220.800 308.000 C 219.334 305.260,216.800 305.944,216.800 309.079 C 216.800 311.984,223.014 316.158,223.805 313.784 C 223.986 313.243,224.746 312.800,225.494 312.800 C 228.092 312.800,229.772 308.591,228.329 305.698 C 227.644 304.324,226.752 303.200,226.347 303.200 C 224.899 303.200,221.729 299.794,222.152 298.692 C 222.492 297.805,222.881 297.910,223.986 299.184 C 225.946 301.444,228.000 301.277,228.000 298.857 C 228.000 294.914,223.121 292.996,219.693 295.592 M229.857 295.684 C 229.541 296.509,229.708 297.236,230.256 297.419 C 230.867 297.622,231.200 299.804,231.200 303.600 C 231.200 307.396,230.867 309.578,230.256 309.781 C 229.733 309.956,229.541 310.693,229.826 311.435 C 230.576 313.391,249.445 313.334,250.198 311.373 C 250.467 310.671,250.263 309.954,249.744 309.781 C 249.225 309.608,248.800 308.712,248.800 307.789 C 248.800 306.401,249.299 306.695,251.699 309.498 C 254.250 312.479,254.945 312.856,257.499 312.642 C 260.857 312.362,261.321 310.813,258.479 309.373 C 257.422 308.838,256.162 307.680,255.679 306.800 C 255.195 305.920,254.549 305.010,254.242 304.779 C 253.935 304.547,254.020 303.827,254.430 303.179 C 257.537 298.265,253.789 293.972,247.020 294.691 C 242.068 295.218,242.662 295.218,235.801 294.684 C 231.134 294.321,230.328 294.456,229.857 295.684 M257.600 296.800 C 257.600 298.120,257.960 299.200,258.400 299.200 C 258.840 299.200,259.200 299.920,259.200 300.800 C 259.200 301.680,259.560 302.400,260.000 302.400 C 260.440 302.400,260.800 303.120,260.800 304.000 C 260.800 304.880,261.160 305.600,261.600 305.600 C 262.040 305.600,262.400 306.299,262.400 307.153 C 262.400 308.007,262.760 308.928,263.200 309.200 C 263.640 309.472,264.000 310.393,264.000 311.247 C 264.000 313.942,267.658 313.252,269.141 310.277 C 269.834 308.889,270.400 307.269,270.400 306.677 C 270.400 306.085,270.760 305.600,271.200 305.600 C 271.640 305.600,272.000 304.889,272.000 304.019 C 272.000 301.221,274.653 297.634,275.808 298.870 C 277.277 300.443,277.140 309.600,275.647 309.600 C 275.013 309.600,274.247 310.000,273.945 310.489 C 272.562 312.726,279.357 313.669,282.047 311.613 C 283.568 310.451,283.563 310.416,281.800 309.920 C 279.219 309.194,279.130 300.629,281.675 297.920 C 283.983 295.464,282.223 294.580,274.952 294.545 C 269.419 294.519,266.986 295.961,269.683 297.668 C 270.482 298.174,270.515 298.379,269.800 298.388 C 269.250 298.394,268.800 299.326,268.800 300.457 C 268.800 304.600,266.880 304.932,265.013 301.113 C 263.989 299.018,263.622 297.434,264.093 297.142 C 265.575 296.226,263.051 294.400,260.302 294.400 C 257.833 294.400,257.600 294.607,257.600 296.800 M288.400 295.732 C 283.815 298.155,283.200 299.129,283.200 303.974 C 283.200 308.790,285.860 312.800,289.055 312.800 C 289.807 312.800,291.137 313.247,292.011 313.792 C 293.276 314.582,293.924 314.582,295.189 313.792 C 296.063 313.247,297.323 312.800,297.989 312.800 C 298.868 312.800,299.200 311.924,299.200 309.600 C 299.200 306.067,297.843 305.346,296.186 308.000 C 293.778 311.855,288.000 309.329,288.000 304.421 C 288.000 298.781,291.903 296.424,295.320 300.000 C 298.324 303.143,299.200 303.028,299.200 299.488 C 299.200 294.636,293.938 292.806,288.400 295.732 M301.000 294.930 C 299.813 295.409,299.649 297.600,300.800 297.600 C 301.977 297.600,301.837 309.388,300.656 309.781 C 297.235 310.922,301.097 312.800,306.862 312.800 L 312.975 312.800 312.545 310.200 C 312.309 308.770,311.778 306.070,311.365 304.200 C 310.768 301.493,310.838 300.800,311.707 300.800 C 313.311 300.800,313.156 295.508,311.535 294.886 C 310.046 294.314,302.446 294.346,301.000 294.930 M316.122 295.894 C 313.019 298.585,313.723 303.204,317.600 305.600 C 321.041 307.727,321.790 309.600,319.200 309.600 C 318.133 309.600,317.600 309.067,317.600 308.000 C 317.600 306.933,317.067 306.400,316.000 306.400 C 314.667 306.400,314.400 306.933,314.400 309.600 C 314.400 312.148,314.693 312.800,315.840 312.800 C 316.632 312.800,317.653 313.173,318.109 313.629 C 318.682 314.202,319.970 313.908,322.269 312.681 C 327.384 309.951,326.448 303.632,320.598 301.387 C 319.805 301.082,319.223 300.061,319.254 299.025 L 319.308 297.200 320.176 299.000 C 321.341 301.416,325.600 301.580,325.600 299.209 C 325.600 294.925,319.643 292.841,316.122 295.894 M171.412 299.438 C 175.657 301.005,174.578 309.605,170.138 309.594 C 165.753 309.583,163.465 300.539,167.400 298.770 C 168.390 298.325,169.380 298.176,169.600 298.439 C 169.820 298.702,170.635 299.151,171.412 299.438 M237.520 299.800 C 238.296 301.292,238.246 301.600,237.228 301.600 C 236.431 301.600,236.000 300.851,236.000 299.467 C 236.000 297.121,236.142 297.153,237.520 299.800 M244.000 303.553 C 244.000 306.827,243.640 309.728,243.200 310.000 C 242.760 310.272,242.400 309.774,242.400 308.894 C 242.400 308.014,242.080 307.097,241.688 306.855 C 240.471 306.102,240.184 300.800,241.361 300.800 C 241.932 300.800,242.400 300.080,242.400 299.200 C 242.400 298.320,242.760 297.600,243.200 297.600 C 243.662 297.600,244.000 300.118,244.000 303.553 M308.508 298.794 C 309.834 300.120,309.330 301.600,307.553 301.600 C 306.856 301.600,306.400 300.808,306.400 299.600 C 306.400 297.294,306.840 297.126,308.508 298.794 M250.400 300.447 C 250.400 301.081,250.040 301.600,249.600 301.600 C 249.160 301.600,248.800 300.859,248.800 299.953 C 248.800 299.047,249.160 298.528,249.600 298.800 C 250.040 299.072,250.400 299.813,250.400 300.447 M152.800 300.400 C 152.800 301.060,152.440 301.600,152.000 301.600 C 151.560 301.600,151.200 301.060,151.200 300.400 C 151.200 299.740,151.560 299.200,152.000 299.200 C 152.440 299.200,152.800 299.740,152.800 300.400 M204.997 300.200 C 205.474 301.498,204.870 303.200,203.933 303.200 C 203.530 303.200,203.200 302.300,203.200 301.200 C 203.200 299.114,204.360 298.468,204.997 300.200 M237.935 306.886 C 239.747 307.581,239.499 309.600,237.600 309.600 C 236.533 309.600,236.000 309.067,236.000 308.000 C 236.000 306.238,236.099 306.181,237.935 306.886 M308.335 306.886 C 310.147 307.581,309.899 309.600,308.000 309.600 C 306.933 309.600,306.400 309.067,306.400 308.000 C 306.400 306.238,306.499 306.181,308.335 306.886 " stroke="none" fill="#4a5aa7" fill-rule="evenodd"></path><path id="path3" d="M250.721 140.223 C 248.917 141.200,246.919 142.360,246.281 142.800 C 244.637 143.932,241.597 148.441,241.613 149.723 C 241.620 150.316,242.435 149.373,243.423 147.628 C 246.634 141.958,251.699 139.593,260.529 139.640 C 264.624 139.661,267.531 139.397,266.988 139.052 C 264.738 137.623,254.105 138.388,250.721 140.223 M144.739 143.800 C 143.821 145.890,142.739 148.225,142.335 148.989 C 141.931 149.753,141.600 150.747,141.600 151.198 C 141.600 151.649,140.923 153.544,140.095 155.409 C 137.669 160.874,136.560 164.027,136.932 164.399 C 137.123 164.590,139.199 159.808,141.546 153.773 C 146.703 140.509,146.486 140.800,151.163 140.800 C 155.664 140.800,154.552 138.914,163.301 161.377 C 166.938 170.714,170.069 178.198,170.259 178.008 C 170.601 177.666,166.828 167.563,163.910 161.009 C 163.079 159.144,162.400 157.350,162.400 157.024 C 162.400 156.697,160.910 152.733,159.088 148.215 L 155.776 140.000 151.092 140.000 L 146.408 140.000 144.739 143.800 M201.959 142.774 C 200.369 146.579,200.567 147.436,202.242 144.000 C 204.258 139.863,211.197 139.329,212.795 143.188 C 213.356 144.543,213.995 145.471,214.215 145.251 C 214.435 145.031,214.163 143.760,213.611 142.426 C 211.972 138.469,203.654 138.718,201.959 142.774 M271.200 141.030 C 273.804 142.340,274.452 146.980,272.263 148.637 C 270.865 149.695,270.871 149.731,272.400 149.465 C 276.037 148.831,274.636 139.986,270.902 140.012 C 269.321 140.023,269.342 140.095,271.200 141.030 M253.851 147.160 C 250.822 149.007,249.372 151.423,249.841 153.841 C 250.139 155.375,250.196 155.333,250.291 153.509 C 250.351 152.359,251.349 150.469,252.509 149.309 C 254.663 147.155,256.071 146.834,262.400 147.053 C 265.146 147.148,265.620 147.004,264.400 146.445 C 261.633 145.178,256.535 145.524,253.851 147.160 M192.874 165.642 C 188.793 175.959,185.066 185.209,184.593 186.199 C 184.119 187.188,183.923 188.190,184.158 188.425 C 184.549 188.816,192.800 169.082,192.800 167.757 C 192.800 167.441,193.479 165.656,194.308 163.791 C 195.137 161.926,196.636 158.240,197.639 155.600 C 198.641 152.960,199.797 150.362,200.206 149.827 C 200.616 149.292,200.804 148.411,200.623 147.869 C 200.442 147.327,196.956 155.325,192.874 165.642 M267.200 148.000 C 267.860 148.427,268.940 148.775,269.600 148.775 C 270.667 148.775,270.667 148.689,269.600 148.000 C 268.940 147.573,267.860 147.225,267.200 147.225 C 266.133 147.225,266.133 147.311,267.200 148.000 M241.029 154.800 C 241.035 157.000,241.190 157.805,241.374 156.589 C 241.558 155.373,241.553 153.573,241.363 152.589 C 241.173 151.605,241.023 152.600,241.029 154.800 M149.333 154.133 C 148.362 155.105,148.781 155.957,150.000 155.489 C 150.736 155.207,151.200 155.490,151.200 156.221 C 151.200 156.877,152.595 160.786,154.300 164.907 C 159.403 177.241,159.869 176.000,150.129 176.000 C 141.856 176.000,141.755 175.977,142.144 174.200 C 142.461 172.754,142.370 172.636,141.682 173.600 C 139.645 176.451,140.538 176.800,149.867 176.800 C 159.477 176.800,160.315 176.595,159.206 174.514 C 158.821 173.791,156.799 168.790,154.713 163.400 C 151.053 153.945,150.491 152.976,149.333 154.133 M205.688 155.352 C 205.299 156.368,203.329 161.300,201.312 166.311 C 196.864 177.357,196.556 176.800,207.114 176.800 C 217.492 176.800,217.101 177.117,214.577 170.756 C 213.452 167.921,212.365 165.768,212.161 165.972 C 211.958 166.176,212.605 168.348,213.600 170.800 C 215.851 176.345,216.187 176.103,206.592 175.829 L 198.576 175.600 201.785 167.600 C 203.551 163.200,205.472 158.521,206.056 157.202 L 207.116 154.805 208.405 157.889 C 209.114 159.585,209.857 160.809,210.057 160.609 C 210.565 160.101,208.202 154.619,207.211 154.007 C 206.763 153.730,206.078 154.335,205.688 155.352 M218.014 156.100 C 219.014 159.346,220.732 162.182,220.768 160.647 C 220.786 159.903,220.440 159.072,220.000 158.800 C 219.560 158.528,219.200 157.628,219.200 156.800 C 219.200 155.972,218.801 155.048,218.314 154.747 C 217.706 154.371,217.612 154.796,218.014 156.100 M250.400 156.711 C 250.400 157.707,256.091 162.568,258.963 164.025 C 272.033 170.659,276.400 175.694,276.400 184.126 C 276.400 197.018,263.747 203.715,246.800 199.793 L 242.000 198.682 241.749 195.232 C 241.436 190.941,242.146 190.186,245.200 191.564 C 257.679 197.198,268.000 194.393,268.000 185.367 C 268.000 180.470,265.770 177.953,256.537 172.431 C 248.204 167.447,245.538 165.250,243.227 161.459 C 242.141 159.677,241.605 159.267,241.603 160.217 C 241.597 162.949,256.340 175.200,259.634 175.200 C 260.151 175.200,263.214 177.734,265.337 179.917 C 267.363 182.001,267.879 186.836,266.376 189.644 C 264.065 193.963,256.972 194.671,247.588 191.520 C 240.647 189.188,240.025 189.425,240.025 194.400 C 240.025 203.301,263.649 204.637,272.320 196.226 C 283.259 185.615,278.274 172.894,259.421 163.307 C 257.563 162.362,254.773 160.320,253.221 158.768 C 251.670 157.216,250.400 156.291,250.400 156.711 M146.595 160.984 C 143.783 168.215,143.709 168.456,144.558 167.600 C 145.650 166.497,149.100 157.633,148.622 157.155 C 148.409 156.942,147.497 158.665,146.595 160.984 M220.800 162.796 C 220.800 164.016,228.349 182.552,228.573 181.881 C 228.712 181.465,227.379 177.573,225.612 173.230 C 223.846 168.888,222.400 164.876,222.400 164.315 C 222.400 163.754,222.040 163.072,221.600 162.800 C 221.160 162.528,220.800 162.526,220.800 162.796 M135.307 167.289 C 134.901 168.340,133.946 170.745,133.185 172.633 C 132.423 174.521,131.964 176.231,132.166 176.432 C 132.367 176.634,133.486 174.393,134.653 171.453 C 135.819 168.512,136.610 165.943,136.409 165.743 C 136.209 165.542,135.713 166.238,135.307 167.289 M170.400 179.537 C 170.400 179.774,171.794 183.485,173.498 187.784 C 178.424 200.214,178.450 199.200,173.212 199.200 C 168.920 199.200,168.678 199.090,167.866 196.759 C 167.398 195.417,166.828 194.505,166.600 194.734 C 164.459 196.874,168.434 200.000,173.297 200.000 C 178.717 200.000,179.579 199.096,177.693 195.389 C 177.305 194.625,176.633 193.100,176.200 192.000 C 174.821 188.492,173.435 185.242,172.707 183.811 C 172.318 183.047,172.000 181.898,172.000 181.258 C 172.000 180.618,171.640 179.872,171.200 179.600 C 170.760 179.328,170.400 179.300,170.400 179.537 M128.907 183.289 C 128.501 184.340,127.546 186.745,126.785 188.633 C 126.023 190.521,125.564 192.231,125.766 192.432 C 125.967 192.634,127.086 190.393,128.253 187.453 C 129.419 184.512,130.210 181.943,130.009 181.743 C 129.809 181.542,129.313 182.238,128.907 183.289 M134.728 191.180 L 131.603 199.200 127.708 199.200 C 123.570 199.200,123.560 199.183,125.227 194.800 C 125.670 193.635,125.590 193.424,124.933 194.025 C 124.436 194.479,123.798 196.009,123.515 197.425 L 123.000 200.000 127.520 200.000 C 131.708 200.000,132.101 199.840,132.871 197.812 C 133.990 194.871,135.967 190.317,136.867 188.611 C 137.270 187.847,137.600 186.715,137.600 186.096 C 137.600 183.786,160.000 182.793,162.340 185.000 C 163.195 185.807,163.329 185.768,163.034 184.800 C 162.733 183.813,160.462 183.561,150.261 183.380 L 137.854 183.161 134.728 191.180 M193.598 185.606 C 193.040 186.951,192.771 188.238,193.000 188.466 C 193.228 188.695,193.801 187.774,194.273 186.419 L 195.132 183.957 206.880 184.178 C 219.474 184.416,218.744 184.161,220.707 189.000 C 225.220 200.121,224.723 199.562,230.346 199.838 C 235.464 200.089,236.511 199.080,234.323 196.000 C 233.667 195.076,233.581 195.306,233.951 197.000 C 234.428 199.188,234.407 199.200,230.105 199.200 L 225.780 199.200 222.641 191.400 L 219.502 183.600 207.056 183.380 L 194.610 183.160 193.598 185.606 M229.160 184.400 C 231.579 190.900,233.080 194.387,233.345 194.121 C 233.793 193.674,230.358 184.552,229.383 183.600 C 228.828 183.057,228.756 183.314,229.160 184.400 M163.257 186.902 C 163.176 188.188,165.620 193.847,166.064 193.403 C 166.267 193.200,165.731 191.451,164.873 189.517 C 164.015 187.582,163.288 186.406,163.257 186.902 M182.746 190.885 C 182.476 191.718,181.928 193.120,181.529 194.000 C 179.464 198.554,180.074 199.600,184.796 199.600 L 189.191 199.600 191.048 194.919 C 192.070 192.345,192.754 190.087,192.568 189.902 C 192.383 189.716,191.588 191.282,190.803 193.382 C 190.018 195.482,189.022 197.650,188.590 198.200 C 187.871 199.115,180.800 199.686,180.800 198.830 C 180.800 198.626,181.533 196.599,182.429 194.326 C 183.325 192.052,183.874 190.007,183.648 189.781 C 183.422 189.556,183.017 190.053,182.746 190.885 " stroke="none" fill="#7885be" fill-rule="evenodd"></path><path id="path4" d="M252.708 140.250 C 239.884 145.072,237.641 158.656,248.282 167.054 C 252.750 170.581,260.000 174.729,260.000 173.759 C 260.000 173.334,259.370 172.787,258.600 172.543 C 257.154 172.084,252.707 169.536,252.000 168.761 C 251.780 168.520,250.431 167.507,249.003 166.509 C 241.382 161.186,240.372 150.593,246.934 144.800 C 251.152 141.077,252.640 140.639,260.889 140.697 C 270.046 140.762,272.000 141.575,272.000 145.323 L 272.000 147.862 267.811 146.331 C 257.246 142.469,248.129 146.439,249.078 154.489 C 249.622 159.107,254.894 163.618,266.635 169.512 C 269.996 171.199,275.093 177.414,275.679 180.541 C 278.162 193.774,266.672 202.098,249.819 199.277 C 242.146 197.993,242.400 198.159,242.400 194.414 L 242.400 191.323 244.671 192.455 C 245.920 193.079,248.170 193.765,249.671 193.980 L 252.400 194.371 249.600 193.332 C 248.060 192.761,245.900 191.905,244.800 191.430 C 242.124 190.275,241.449 191.117,241.749 195.232 L 242.000 198.682 246.800 199.793 C 263.747 203.715,276.400 197.018,276.400 184.126 C 276.400 175.694,272.033 170.659,258.963 164.025 C 242.665 155.753,249.643 141.499,267.174 147.254 C 272.873 149.125,273.844 148.731,273.458 144.707 C 273.031 140.245,260.105 137.468,252.708 140.250 M146.623 141.800 C 145.827 142.830,124.000 197.688,124.000 198.658 C 124.000 198.956,125.711 199.200,127.801 199.200 L 131.603 199.200 134.728 191.180 L 137.854 183.161 150.215 183.380 L 162.577 183.600 165.597 191.200 L 168.618 198.800 173.109 199.040 C 175.579 199.172,177.600 199.102,177.600 198.886 C 177.600 197.781,173.340 187.194,173.023 187.510 C 172.590 187.943,174.432 193.648,175.363 194.760 C 177.198 196.950,176.023 198.494,172.711 198.246 C 169.458 198.003,169.400 197.943,167.433 192.800 C 166.339 189.940,164.853 186.421,164.130 184.981 L 162.816 182.362 150.156 182.581 C 136.120 182.824,137.107 182.429,134.601 188.800 C 134.168 189.900,133.429 191.700,132.957 192.800 C 132.486 193.900,131.874 195.610,131.596 196.600 C 131.185 198.069,130.524 198.400,128.001 198.400 L 124.910 198.400 127.336 192.200 C 128.670 188.790,130.038 185.280,130.374 184.400 C 130.711 183.520,131.394 181.810,131.893 180.600 C 132.392 179.390,133.208 177.410,133.707 176.200 C 135.102 172.816,136.156 170.158,136.800 168.400 C 137.122 167.520,137.842 165.720,138.400 164.400 C 138.958 163.080,139.768 161.100,140.200 160.000 C 140.633 158.900,141.305 157.375,141.693 156.611 C 142.082 155.847,142.400 154.853,142.400 154.402 C 142.400 153.951,143.143 151.876,144.050 149.791 C 147.446 141.990,147.423 142.017,150.870 141.762 C 154.725 141.476,154.050 140.365,161.219 158.800 C 166.934 173.497,167.363 174.585,168.620 177.600 C 169.079 178.700,169.676 180.282,169.946 181.115 C 170.217 181.947,170.627 182.439,170.859 182.207 C 171.229 181.838,158.119 147.342,155.807 142.600 C 154.803 140.540,148.051 139.952,146.623 141.800 M203.432 141.800 C 203.012 142.350,202.206 144.060,201.640 145.600 C 201.075 147.140,200.144 149.480,199.572 150.800 C 199.000 152.120,197.922 154.820,197.177 156.800 C 196.432 158.780,195.143 161.926,194.312 163.791 C 193.480 165.656,192.800 167.468,192.800 167.817 C 192.800 168.166,190.628 173.798,187.974 180.333 C 185.319 186.868,183.318 192.385,183.527 192.594 C 183.989 193.056,184.053 192.903,194.787 165.600 C 204.691 140.408,204.031 141.600,208.060 141.600 C 211.244 141.600,211.664 142.105,214.375 149.200 C 214.711 150.080,215.360 151.700,215.817 152.800 C 216.274 153.900,217.796 157.860,219.200 161.600 C 220.604 165.340,222.078 169.210,222.476 170.200 C 222.874 171.190,223.512 172.810,223.893 173.800 C 224.274 174.790,224.961 176.500,225.419 177.600 C 225.878 178.700,227.224 182.120,228.410 185.200 C 229.597 188.280,231.244 192.510,232.072 194.600 L 233.577 198.400 229.969 198.400 C 226.805 198.400,226.261 198.140,225.558 196.289 C 225.116 195.128,224.572 194.362,224.348 194.586 C 222.541 196.392,226.091 199.200,230.182 199.200 C 235.381 199.200,235.718 201.355,227.058 179.200 C 223.532 170.180,219.744 160.460,218.640 157.600 C 217.537 154.740,215.558 149.790,214.242 146.600 L 211.851 140.800 208.023 140.800 C 205.902 140.800,203.855 141.246,203.432 141.800 M146.874 157.768 C 145.661 160.976,144.339 164.410,143.935 165.400 C 143.531 166.390,142.888 168.010,142.507 169.000 C 142.126 169.990,141.370 171.743,140.828 172.895 C 138.667 177.487,139.482 177.977,149.691 178.224 C 162.367 178.531,162.132 179.040,156.151 164.237 C 150.509 150.276,149.873 149.832,146.874 157.768 M201.375 163.786 C 195.226 179.495,194.762 178.400,207.567 178.400 C 217.066 178.400,218.632 177.617,216.814 173.773 C 215.820 171.671,214.943 169.566,213.493 165.800 C 213.112 164.810,212.477 163.190,212.082 162.200 C 211.687 161.210,210.670 158.600,209.822 156.400 C 207.334 149.943,206.514 150.660,201.375 163.786 M154.713 163.400 C 156.799 168.790,158.821 173.791,159.206 174.514 C 159.591 175.236,159.687 176.046,159.420 176.314 C 158.691 177.043,140.800 176.900,140.800 176.165 C 140.800 175.816,142.460 171.406,144.490 166.365 C 146.519 161.324,148.491 156.390,148.870 155.400 C 150.060 152.296,150.815 153.329,154.713 163.400 M212.597 165.751 C 217.366 177.747,217.835 176.800,207.114 176.800 C 196.556 176.800,196.864 177.357,201.312 166.311 C 203.329 161.300,205.314 156.328,205.723 155.261 C 206.837 152.353,207.938 154.032,212.597 165.751 M264.386 177.863 C 269.331 182.601,269.599 187.503,265.143 191.706 C 262.170 194.509,262.333 195.318,265.434 193.146 C 270.515 189.587,270.290 181.914,264.961 177.033 C 260.691 173.121,260.190 173.843,264.386 177.863 M192.329 187.000 C 191.238 189.530,190.021 192.320,189.623 193.200 C 189.226 194.080,188.674 195.610,188.396 196.600 C 187.982 198.080,187.327 198.400,184.718 198.400 C 181.828 198.400,181.618 198.262,182.372 196.853 C 183.398 194.936,183.494 192.595,182.472 194.400 C 180.214 198.392,180.513 199.200,184.248 199.200 C 188.822 199.200,188.448 199.742,193.785 185.380 L 194.610 183.160 207.073 183.380 L 219.535 183.600 221.496 188.605 C 222.574 191.358,223.627 193.440,223.836 193.231 C 224.215 192.851,223.220 189.891,221.069 185.000 L 219.925 182.400 207.118 182.400 L 194.312 182.400 192.329 187.000 M255.014 194.980 C 256.452 195.158,258.612 195.154,259.814 194.972 C 261.016 194.789,259.840 194.643,257.200 194.648 C 254.560 194.652,253.576 194.802,255.014 194.980 " stroke="none" fill="#c0c6e0" fill-rule="evenodd"></path></g></svg>